<?xml version="1.0" standalone="no"?>
<!DOCTYPE svg PUBLIC "-//W3C//DTD SVG 20010904//EN" "http://www.w3.org/TR/2001/REC-SVG-20010904/DTD/svg10.dtd">
<svg version="1.0" xmlns="http://www.w3.org/2000/svg" width="16.000000pt" height="16.000000pt" viewBox="0 0 225.000000 225.000000" preserveAspectRatio="xMidYMid meet">

  <g transform="translate(0.000000,225.000000) scale(0.100000,-0.100000)" fill="#000000" stroke="none">
    <path d="M818 2240 c-247 -39 -461 -164 -604 -353 -56 -74 -136 -237 -159
-327 -26 -100 -31 -296 -11 -404 66 -347 327 -624 676 -718 121 -32 331 -32
443 0 102 29 192 71 279 128 68 45 70 46 87 28 10 -11 136 -149 281 -307 l264
-288 75 75 76 76 -281 283 -282 282 48 73 c99 152 153 344 152 542 0 193 -49
354 -153 509 -125 188 -315 323 -534 380 -91 24 -271 35 -357 21z m298 -215
c197 -45 376 -189 468 -377 53 -107 76 -199 76 -314 0 -210 -74 -380 -230
-527 -164 -155 -381 -221 -599 -183 -276 48 -488 235 -573 506 -19 63 -23 95
-22 205 0 113 4 141 27 210 37 113 90 198 177 286 181 183 423 252 676 194z" />
  </g>
</svg>
