<?xml version="1.0" standalone="no"?>
<!DOCTYPE svg PUBLIC "-//W3C//DTD SVG 20010904//EN" "http://www.w3.org/TR/2001/REC-SVG-20010904/DTD/svg10.dtd">
<svg version="1.0" xmlns="http://www.w3.org/2000/svg" width="200.000000pt" height="200.000000pt" viewBox="0 0 83.000000 83.000000" preserveAspectRatio="xMidYMid meet">

  <g transform="translate(0.000000,83.000000) scale(0.100000,-0.100000)" fill="#000000" stroke="none">
    <path d="M233 794 c-18 -21 -33 -45 -33 -54 0 -10 -6 -23 -14 -29 -8 -7 -20
-43 -27 -80 -11 -62 -10 -72 10 -127 13 -32 28 -65 34 -73 9 -11 9 -15 0 -18
-18 -6 -16 -43 1 -43 7 0 21 -10 30 -22 l17 -23 -4 27 -4 28 23 -25 c20 -21
32 -25 82 -25 67 0 92 17 118 78 l16 37 29 -35 c16 -19 29 -40 29 -48 0 -7 5
-10 10 -7 18 11 11 -5 -14 -32 -18 -20 -30 -24 -49 -19 -14 3 -28 2 -31 -3 -3
-5 5 -12 19 -15 14 -4 25 -11 25 -16 0 -6 12 -10 26 -10 45 0 16 -17 -52 -30
-55 -11 -68 -10 -75 1 -6 11 -9 10 -15 -4 -9 -24 4 -56 15 -38 7 10 13 11 30
2 11 -7 21 -15 21 -19 0 -14 75 -36 115 -33 22 2 48 10 58 18 14 13 17 13 17
2 -1 -21 -57 -79 -80 -82 -11 -2 -23 -6 -26 -10 -13 -13 -62 -7 -111 13 -47
20 -47 20 -23 1 14 -11 51 -27 82 -36 37 -10 58 -21 58 -31 0 -11 25 -14 145
-14 l145 0 0 173 c0 108 -4 167 -9 157 -6 -8 -7 -18 -5 -22 3 -4 0 -8 -6 -8
-6 0 -9 -4 -6 -9 3 -5 -1 -14 -9 -21 -9 -7 -14 -22 -13 -34 3 -22 -21 -32 -50
-21 -16 6 -16 7 1 16 11 7 17 22 17 47 0 40 21 73 58 91 19 10 22 20 22 70 l0
57 -50 -6 c-36 -5 -50 -3 -50 6 0 6 -6 17 -14 24 -8 6 -12 18 -9 26 5 14 -14
99 -27 119 -3 6 -7 21 -8 34 0 13 -6 27 -11 31 -6 3 -25 27 -43 52 l-33 46
-160 1 -160 1 -32 -36z m167 -140 c25 -9 68 -18 95 -21 28 -3 55 -9 61 -14 6
-5 19 -2 33 7 12 9 28 14 35 11 14 -6 51 -95 42 -104 -3 -3 -21 2 -40 11 -49
23 -104 10 -126 -29 -12 -22 -25 -31 -48 -33 -23 -2 -32 1 -32 11 0 8 -6 17
-13 20 -26 10 -110 -15 -132 -39 -12 -13 -25 -24 -28 -24 -3 0 -9 29 -12 64
-9 81 14 143 54 149 51 8 67 7 111 -9z m290 -179 c1 11 7 -2 12 -30 5 -27 14
-53 20 -56 7 -4 8 -17 3 -35 -6 -22 -9 -24 -12 -11 -3 9 -8 16 -11 14 -4 -2
-17 7 -29 20 -12 13 -19 23 -15 23 5 0 17 7 28 15 17 13 15 13 -18 0 -21 -8
-50 -15 -65 -15 -26 1 -24 3 17 23 32 16 46 29 49 47 3 23 4 24 12 5 l8 -20 1
20z m-335 -25 c4 -6 -1 -7 -11 -3 -10 4 -15 2 -11 -4 5 -8 -13 -10 -43 -4 -3
1 2 6 10 11 19 13 47 13 55 0z m-70 -30 c3 -11 11 -20 16 -20 6 0 8 -4 5 -8
-9 -15 74 -13 105 3 29 16 31 15 27 -2 -7 -35 -118 -66 -151 -41 -20 15 -36
88 -19 88 6 0 14 -9 17 -20z m385 -47 c0 -5 -9 -19 -19 -33 l-19 -24 -20 24
-20 25 21 7 c31 9 57 9 57 1z m-9 -166 c-8 -8 -11 -7 -11 4 0 20 13 34 18 19
3 -7 -1 -17 -7 -23z m-96 4 c-3 -6 -15 -11 -25 -11 -25 0 -35 -17 -13 -23 17
-4 17 -4 0 -12 -9 -4 -29 -4 -45 0 -25 7 -25 8 -7 15 11 5 17 9 13 11 -22 5
-29 7 -40 8 -9 1 -9 4 -1 12 6 6 33 10 62 8 28 -2 51 0 51 5 0 5 3 7 6 3 3 -3
3 -10 -1 -16z" />
    <path d="M202 800 c0 -14 2 -19 5 -12 2 6 2 18 0 25 -3 6 -5 1 -5 -13z" />
    <path d="M5 290 c-3 -5 -1 -10 4 -10 6 0 11 5 11 10 0 6 -2 10 -4 10 -3 0 -8
-4 -11 -10z" />
    <path d="M150 291 c-27 -4 -45 -11 -44 -18 1 -7 2 -22 3 -34 1 -16 6 -19 21
-14 14 5 20 2 20 -9 0 -9 6 -16 13 -16 24 -1 -18 -17 -90 -35 l-73 -19 0 -73
0 -73 189 0 190 0 -10 32 c-5 18 -9 43 -9 56 0 13 -11 34 -24 47 -14 14 -29
33 -35 42 -9 16 -13 16 -31 5 -15 -9 -20 -10 -15 -2 6 9 -1 10 -25 5 l-33 -7
22 31 c12 17 29 31 37 31 10 0 9 5 -6 20 -11 11 -20 25 -20 30 0 11 -8 11 -80
1z" />
    <path d="M20 260 c0 -6 -4 -8 -10 -5 -6 4 -10 -8 -10 -28 l0 -35 43 10 c42 11
73 28 48 28 -7 0 -26 9 -42 21 -16 11 -29 15 -29 9z m10 -24 c0 -3 -4 -8 -10
-11 -5 -3 -10 -1 -10 4 0 6 5 11 10 11 6 0 10 -2 10 -4z" />
    <path d="M118 193 c7 -3 16 -2 19 1 4 3 -2 6 -13 5 -11 0 -14 -3 -6 -6z" />
    <path d="M78 183 c7 -3 16 -2 19 1 4 3 -2 6 -13 5 -11 0 -14 -3 -6 -6z" />
  </g>
</svg>
